<svg xmlns="http://www.w3.org/2000/svg" viewBox="0 0 720 200" width="720" height="200">
  <rect width="720" height="200" fill="#09090B"/>
  <g transform="translate(40, 20)">

    <g stroke="#6EE4C0" stroke-width="10" stroke-linecap="round" fill="none">
      <line x1="80" y1="20" x2="20" y2="140"/>
      <line x1="80" y1="20" x2="140" y2="140"/>
      <line x1="20" y1="140" x2="140" y2="140"/>
      <line x1="42" y1="90" x2="140" y2="140" stroke-width="8"/>
    </g>
    <circle cx="80" cy="20" r="13" fill="#6EE4C0"/>
    <circle cx="20" cy="140" r="12" fill="#6EE4C0"/>
    <circle cx="140" cy="140" r="12" fill="#6EE4C0"/>
    <circle cx="42" cy="90" r="10" fill="#6EE4C0"/>
  </g>
  <g transform="translate(220, 118)">
    <path d="M7.59 0L1.25 0L16.22-36.40L20.38-36.40L35.26 0L28.81 0L26.05-7.02L10.40-7.02L7.59 0ZM12.48-12.22L23.97-12.22L18.25-26.73L12.48-12.22ZM47.11 0L41.39 0L41.39-19.76L35.41-19.76L35.41-24.96L41.39-24.96L41.39-35.36L47.11-35.36L47.11-24.96L53.09-24.96L53.09-19.76L47.11-19.76L47.11 0ZM80.08 0L74.36 0L74.36-14.40Q74.36-16.90 72.77-18.51Q71.19-20.12 68.69-20.12L68.69-20.12Q67.03-20.12 65.73-19.40Q64.43-18.67 63.70-17.37Q62.97-16.07 62.97-14.40L62.97-14.40L62.97 0L57.25 0L57.25-37.44L62.97-37.44L62.97-22.15Q64.01-23.40 65.47-24.23L65.47-24.23Q67.65-25.48 70.41-25.48L70.41-25.48Q73.22-25.48 75.40-24.23Q77.58-22.98 78.83-20.77Q80.08-18.56 80.08-15.65L80.08-15.65L80.08 0ZM97.50 0.52L97.50 0.52Q93.76 0.52 90.77-1.17Q87.78-2.86 86.03-5.82Q84.29-8.79 84.29-12.48Q84.29-16.17 86.01-19.11Q87.72-22.05 90.66-23.76Q93.60-25.48 97.19-25.48L97.19-25.48Q100.67-25.48 103.35-23.87Q106.03-22.26 107.56-19.45Q109.10-16.64 109.10-13.05L109.10-13.05Q109.10-12.43 109.02-11.78Q108.94-11.13 108.78-10.35L108.78-10.35L90.17-10.35Q90.38-9.36 90.84-8.53L90.84-8.53Q91.78-6.76 93.50-5.80Q95.21-4.84 97.45-4.84L97.45-4.84Q99.37-4.84 101.01-5.51Q102.65-6.19 103.79-7.49L103.79-7.49L107.43-3.80Q105.61-1.66 103.01-0.57Q100.41 0.52 97.50 0.52ZM90.17-15.03L90.17-15.03L103.48-15.03Q103.22-16.12 102.80-17.00L102.80-17.00Q102.02-18.56 100.59-19.40Q99.16-20.23 97.08-20.23L97.08-20.23Q94.90-20.23 93.29-19.29Q91.68-18.36 90.79-16.69L90.79-16.69Q90.38-15.91 90.17-15.03ZM136.50 0L130.78 0L130.78-14.40Q130.78-16.90 129.19-18.51Q127.61-20.12 125.11-20.12L125.11-20.12Q123.45-20.12 122.15-19.40Q120.85-18.67 120.12-17.37Q119.39-16.07 119.39-14.40L119.39-14.40L119.39 0L113.67 0L113.67-24.96L119.39-24.96L119.39-22.15Q120.43-23.40 121.89-24.23L121.89-24.23Q124.07-25.48 126.83-25.48L126.83-25.48Q129.64-25.48 131.82-24.05Q134.00-22.62 135.25-20.36Q136.50-18.10 136.50-15.65L136.50-15.65L136.50 0ZM152.78 0.52L152.78 0.52Q149.40 0.52 146.67-1.20Q143.94-2.91 142.35-5.85Q140.76-8.79 140.76-12.43L140.76-12.43Q140.76-16.12 142.35-19.06Q143.94-22.00 146.67-23.74Q149.40-25.48 152.78-25.48L152.78-25.48Q155.64-25.48 157.87-24.28L157.87-24.28Q159.33-23.45 160.42-22.20L160.42-22.20L160.42-24.96L166.14-24.96L166.14 0L160.42 0L160.42-2.70Q159.38-1.51 157.87-0.73L157.87-0.73Q155.64 0.52 152.78 0.52ZM153.71-4.89L153.71-4.89Q156.88-4.89 158.83-7.02Q160.78-9.15 160.78-12.48L160.78-12.48Q160.78-14.72 159.90-16.43Q159.02-18.15 157.43-19.11Q155.84-20.07 153.71-20.07L153.71-20.07Q151.63-20.07 150.05-19.11Q148.46-18.15 147.55-16.43Q146.64-14.72 146.64-12.48Q146.64-10.24 147.55-8.53Q148.46-6.81 150.05-5.85Q151.63-4.89 153.71-4.89Z" fill="#FAFAFA"/>
  </g>
  <g transform="translate(389.312, 118)" opacity="0.55">
    <path d="M8.37 0L4.58 0L4.58-35.78L27.14-35.78L27.14-32.29L8.37-32.29L8.37-19.66L26.26-19.66L26.26-16.17L8.37-16.17L8.37 0ZM36.82 0L33.18 0L33.18-36.82L36.82-36.82L36.82 0ZM55.28 0.52L55.28 0.52Q51.74 0.52 48.85-1.20Q45.97-2.91 44.28-5.82Q42.59-8.74 42.59-12.32L42.59-12.32Q42.59-15.86 44.28-18.72Q45.97-21.58 48.85-23.27Q51.74-24.96 55.28-24.96L55.28-24.96Q58.86-24.96 61.72-23.30Q64.58-21.63 66.27-18.75Q67.96-15.86 67.96-12.32L67.96-12.32Q67.96-8.68 66.27-5.80Q64.58-2.91 61.72-1.20Q58.86 0.52 55.28 0.52ZM55.28-3.02L55.28-3.02Q57.88-3.02 59.88-4.21Q61.88-5.41 63.05-7.54Q64.22-9.67 64.22-12.32L64.22-12.32Q64.22-14.98 63.05-17.03Q61.88-19.08 59.88-20.28Q57.88-21.48 55.28-21.48L55.28-21.48Q52.73-21.48 50.70-20.28Q48.67-19.08 47.53-17.03Q46.38-14.98 46.38-12.32L46.38-12.32Q46.38-9.62 47.53-7.51Q48.67-5.41 50.70-4.21Q52.73-3.02 55.28-3.02ZM81.90 0L79.72 0L70.30-24.44L74.10-24.44L80.86-5.98L87.57-24.44L89.70-24.44L96.41-5.98L103.12-24.44L106.96-24.44L97.50 0L95.37 0L88.61-17.94L81.90 0Z" fill="#FAFAFA"/>
  </g>
</svg>
